<mxfile host="Electron" modified="2024-08-10T22:21:02.731Z" agent="Mozilla/5.0 (Windows NT 10.0; Win64; x64) AppleWebKit/537.36 (KHTML, like Gecko) draw.io/24.6.4 Chrome/124.0.6367.207 Electron/30.0.6 Safari/537.36" etag="rlZjsSNdRdfPUtWxAy86" version="24.6.4" type="device">
  <diagram name="第 1 页" id="7ilaTLUCwq7mzeWYmB-O">
    <mxGraphModel dx="757" dy="681" grid="1" gridSize="10" guides="1" tooltips="1" connect="1" arrows="1" fold="1" page="1" pageScale="1" pageWidth="827" pageHeight="1169" math="0" shadow="0">
      <root>
        <mxCell id="0" />
        <mxCell id="1" parent="0" />
        <mxCell id="-Nrk2GaAwONbbJXYmBY--41" value="" style="childLayout=tableLayout;recursiveResize=0;shadow=0;fillColor=none;" vertex="1" parent="1">
          <mxGeometry x="260" y="670" width="399" height="95" as="geometry" />
        </mxCell>
        <mxCell id="-Nrk2GaAwONbbJXYmBY--42" value="" style="shape=tableRow;horizontal=0;startSize=0;swimlaneHead=0;swimlaneBody=0;top=0;left=0;bottom=0;right=0;dropTarget=0;collapsible=0;recursiveResize=0;expand=0;fontStyle=0;fillColor=none;strokeColor=inherit;" vertex="1" parent="-Nrk2GaAwONbbJXYmBY--41">
          <mxGeometry width="399" height="35" as="geometry" />
        </mxCell>
        <mxCell id="-Nrk2GaAwONbbJXYmBY--43" value="H" style="connectable=0;recursiveResize=0;strokeColor=#6c8ebf;fillColor=#dae8fc;align=center;whiteSpace=wrap;html=1;" vertex="1" parent="-Nrk2GaAwONbbJXYmBY--42">
          <mxGeometry width="40" height="35" as="geometry">
            <mxRectangle width="40" height="35" as="alternateBounds" />
          </mxGeometry>
        </mxCell>
        <mxCell id="-Nrk2GaAwONbbJXYmBY--44" value="e" style="connectable=0;recursiveResize=0;strokeColor=#6c8ebf;fillColor=#dae8fc;align=center;whiteSpace=wrap;html=1;" vertex="1" parent="-Nrk2GaAwONbbJXYmBY--42">
          <mxGeometry x="40" width="40" height="35" as="geometry">
            <mxRectangle width="40" height="35" as="alternateBounds" />
          </mxGeometry>
        </mxCell>
        <mxCell id="-Nrk2GaAwONbbJXYmBY--81" value="l" style="connectable=0;recursiveResize=0;strokeColor=#6c8ebf;fillColor=#dae8fc;align=center;whiteSpace=wrap;html=1;" vertex="1" parent="-Nrk2GaAwONbbJXYmBY--42">
          <mxGeometry x="80" width="40" height="35" as="geometry">
            <mxRectangle width="40" height="35" as="alternateBounds" />
          </mxGeometry>
        </mxCell>
        <mxCell id="-Nrk2GaAwONbbJXYmBY--84" value="l" style="connectable=0;recursiveResize=0;strokeColor=#6c8ebf;fillColor=#dae8fc;align=center;whiteSpace=wrap;html=1;" vertex="1" parent="-Nrk2GaAwONbbJXYmBY--42">
          <mxGeometry x="120" width="40" height="35" as="geometry">
            <mxRectangle width="40" height="35" as="alternateBounds" />
          </mxGeometry>
        </mxCell>
        <mxCell id="-Nrk2GaAwONbbJXYmBY--91" value="o" style="connectable=0;recursiveResize=0;strokeColor=#6c8ebf;fillColor=#dae8fc;align=center;whiteSpace=wrap;html=1;" vertex="1" parent="-Nrk2GaAwONbbJXYmBY--42">
          <mxGeometry x="160" width="40" height="35" as="geometry">
            <mxRectangle width="40" height="35" as="alternateBounds" />
          </mxGeometry>
        </mxCell>
        <mxCell id="-Nrk2GaAwONbbJXYmBY--94" value="W" style="connectable=0;recursiveResize=0;strokeColor=#6c8ebf;fillColor=#dae8fc;align=center;whiteSpace=wrap;html=1;" vertex="1" parent="-Nrk2GaAwONbbJXYmBY--42">
          <mxGeometry x="200" width="40" height="35" as="geometry">
            <mxRectangle width="40" height="35" as="alternateBounds" />
          </mxGeometry>
        </mxCell>
        <mxCell id="-Nrk2GaAwONbbJXYmBY--97" value="o" style="connectable=0;recursiveResize=0;strokeColor=#6c8ebf;fillColor=#dae8fc;align=center;whiteSpace=wrap;html=1;" vertex="1" parent="-Nrk2GaAwONbbJXYmBY--42">
          <mxGeometry x="240" width="40" height="35" as="geometry">
            <mxRectangle width="40" height="35" as="alternateBounds" />
          </mxGeometry>
        </mxCell>
        <mxCell id="-Nrk2GaAwONbbJXYmBY--100" value="r" style="connectable=0;recursiveResize=0;strokeColor=#6c8ebf;fillColor=#dae8fc;align=center;whiteSpace=wrap;html=1;" vertex="1" parent="-Nrk2GaAwONbbJXYmBY--42">
          <mxGeometry x="280" width="40" height="35" as="geometry">
            <mxRectangle width="40" height="35" as="alternateBounds" />
          </mxGeometry>
        </mxCell>
        <mxCell id="-Nrk2GaAwONbbJXYmBY--103" value="l" style="connectable=0;recursiveResize=0;strokeColor=#6c8ebf;fillColor=#dae8fc;align=center;whiteSpace=wrap;html=1;" vertex="1" parent="-Nrk2GaAwONbbJXYmBY--42">
          <mxGeometry x="320" width="40" height="35" as="geometry">
            <mxRectangle width="40" height="35" as="alternateBounds" />
          </mxGeometry>
        </mxCell>
        <mxCell id="-Nrk2GaAwONbbJXYmBY--106" value="d" style="connectable=0;recursiveResize=0;strokeColor=#6c8ebf;fillColor=#dae8fc;align=center;whiteSpace=wrap;html=1;" vertex="1" parent="-Nrk2GaAwONbbJXYmBY--42">
          <mxGeometry x="360" width="39" height="35" as="geometry">
            <mxRectangle width="39" height="35" as="alternateBounds" />
          </mxGeometry>
        </mxCell>
        <mxCell id="-Nrk2GaAwONbbJXYmBY--68" style="shape=tableRow;horizontal=0;startSize=0;swimlaneHead=0;swimlaneBody=0;top=0;left=0;bottom=0;right=0;dropTarget=0;collapsible=0;recursiveResize=0;expand=0;fontStyle=0;fillColor=none;strokeColor=inherit;" vertex="1" parent="-Nrk2GaAwONbbJXYmBY--41">
          <mxGeometry y="35" width="399" height="30" as="geometry" />
        </mxCell>
        <mxCell id="-Nrk2GaAwONbbJXYmBY--69" value="0" style="connectable=0;recursiveResize=0;strokeColor=#d6b656;fillColor=#fff2cc;align=center;whiteSpace=wrap;html=1;" vertex="1" parent="-Nrk2GaAwONbbJXYmBY--68">
          <mxGeometry width="40" height="30" as="geometry">
            <mxRectangle width="40" height="30" as="alternateBounds" />
          </mxGeometry>
        </mxCell>
        <mxCell id="-Nrk2GaAwONbbJXYmBY--70" value="1" style="connectable=0;recursiveResize=0;strokeColor=#d6b656;fillColor=#fff2cc;align=center;whiteSpace=wrap;html=1;" vertex="1" parent="-Nrk2GaAwONbbJXYmBY--68">
          <mxGeometry x="40" width="40" height="30" as="geometry">
            <mxRectangle width="40" height="30" as="alternateBounds" />
          </mxGeometry>
        </mxCell>
        <mxCell id="-Nrk2GaAwONbbJXYmBY--82" value="2" style="connectable=0;recursiveResize=0;strokeColor=#d6b656;fillColor=#fff2cc;align=center;whiteSpace=wrap;html=1;" vertex="1" parent="-Nrk2GaAwONbbJXYmBY--68">
          <mxGeometry x="80" width="40" height="30" as="geometry">
            <mxRectangle width="40" height="30" as="alternateBounds" />
          </mxGeometry>
        </mxCell>
        <mxCell id="-Nrk2GaAwONbbJXYmBY--85" value="3" style="connectable=0;recursiveResize=0;strokeColor=#d6b656;fillColor=#fff2cc;align=center;whiteSpace=wrap;html=1;" vertex="1" parent="-Nrk2GaAwONbbJXYmBY--68">
          <mxGeometry x="120" width="40" height="30" as="geometry">
            <mxRectangle width="40" height="30" as="alternateBounds" />
          </mxGeometry>
        </mxCell>
        <mxCell id="-Nrk2GaAwONbbJXYmBY--92" value="4" style="connectable=0;recursiveResize=0;strokeColor=#d6b656;fillColor=#fff2cc;align=center;whiteSpace=wrap;html=1;" vertex="1" parent="-Nrk2GaAwONbbJXYmBY--68">
          <mxGeometry x="160" width="40" height="30" as="geometry">
            <mxRectangle width="40" height="30" as="alternateBounds" />
          </mxGeometry>
        </mxCell>
        <mxCell id="-Nrk2GaAwONbbJXYmBY--95" value="5" style="connectable=0;recursiveResize=0;strokeColor=#d6b656;fillColor=#fff2cc;align=center;whiteSpace=wrap;html=1;" vertex="1" parent="-Nrk2GaAwONbbJXYmBY--68">
          <mxGeometry x="200" width="40" height="30" as="geometry">
            <mxRectangle width="40" height="30" as="alternateBounds" />
          </mxGeometry>
        </mxCell>
        <mxCell id="-Nrk2GaAwONbbJXYmBY--98" value="6" style="connectable=0;recursiveResize=0;strokeColor=#d6b656;fillColor=#fff2cc;align=center;whiteSpace=wrap;html=1;" vertex="1" parent="-Nrk2GaAwONbbJXYmBY--68">
          <mxGeometry x="240" width="40" height="30" as="geometry">
            <mxRectangle width="40" height="30" as="alternateBounds" />
          </mxGeometry>
        </mxCell>
        <mxCell id="-Nrk2GaAwONbbJXYmBY--101" value="7" style="connectable=0;recursiveResize=0;strokeColor=#d6b656;fillColor=#fff2cc;align=center;whiteSpace=wrap;html=1;" vertex="1" parent="-Nrk2GaAwONbbJXYmBY--68">
          <mxGeometry x="280" width="40" height="30" as="geometry">
            <mxRectangle width="40" height="30" as="alternateBounds" />
          </mxGeometry>
        </mxCell>
        <mxCell id="-Nrk2GaAwONbbJXYmBY--104" value="8" style="connectable=0;recursiveResize=0;strokeColor=#d6b656;fillColor=#fff2cc;align=center;whiteSpace=wrap;html=1;" vertex="1" parent="-Nrk2GaAwONbbJXYmBY--68">
          <mxGeometry x="320" width="40" height="30" as="geometry">
            <mxRectangle width="40" height="30" as="alternateBounds" />
          </mxGeometry>
        </mxCell>
        <mxCell id="-Nrk2GaAwONbbJXYmBY--107" value="&lt;font style=&quot;font-size: 12px;&quot;&gt;9&lt;/font&gt;" style="connectable=0;recursiveResize=0;strokeColor=#d6b656;fillColor=#fff2cc;align=center;whiteSpace=wrap;html=1;" vertex="1" parent="-Nrk2GaAwONbbJXYmBY--68">
          <mxGeometry x="360" width="39" height="30" as="geometry">
            <mxRectangle width="39" height="30" as="alternateBounds" />
          </mxGeometry>
        </mxCell>
        <mxCell id="-Nrk2GaAwONbbJXYmBY--86" style="shape=tableRow;horizontal=0;startSize=0;swimlaneHead=0;swimlaneBody=0;top=0;left=0;bottom=0;right=0;dropTarget=0;collapsible=0;recursiveResize=0;expand=0;fontStyle=0;fillColor=none;strokeColor=inherit;" vertex="1" parent="-Nrk2GaAwONbbJXYmBY--41">
          <mxGeometry y="65" width="399" height="30" as="geometry" />
        </mxCell>
        <mxCell id="-Nrk2GaAwONbbJXYmBY--87" value="^10" style="connectable=0;recursiveResize=0;strokeColor=#82b366;fillColor=#d5e8d4;align=center;whiteSpace=wrap;html=1;" vertex="1" parent="-Nrk2GaAwONbbJXYmBY--86">
          <mxGeometry width="40" height="30" as="geometry">
            <mxRectangle width="40" height="30" as="alternateBounds" />
          </mxGeometry>
        </mxCell>
        <mxCell id="-Nrk2GaAwONbbJXYmBY--88" value="^9" style="connectable=0;recursiveResize=0;strokeColor=#82b366;fillColor=#d5e8d4;align=center;whiteSpace=wrap;html=1;" vertex="1" parent="-Nrk2GaAwONbbJXYmBY--86">
          <mxGeometry x="40" width="40" height="30" as="geometry">
            <mxRectangle width="40" height="30" as="alternateBounds" />
          </mxGeometry>
        </mxCell>
        <mxCell id="-Nrk2GaAwONbbJXYmBY--89" value="^8" style="connectable=0;recursiveResize=0;strokeColor=#82b366;fillColor=#d5e8d4;align=center;whiteSpace=wrap;html=1;" vertex="1" parent="-Nrk2GaAwONbbJXYmBY--86">
          <mxGeometry x="80" width="40" height="30" as="geometry">
            <mxRectangle width="40" height="30" as="alternateBounds" />
          </mxGeometry>
        </mxCell>
        <mxCell id="-Nrk2GaAwONbbJXYmBY--90" value="^7" style="connectable=0;recursiveResize=0;strokeColor=#82b366;fillColor=#d5e8d4;align=center;whiteSpace=wrap;html=1;" vertex="1" parent="-Nrk2GaAwONbbJXYmBY--86">
          <mxGeometry x="120" width="40" height="30" as="geometry">
            <mxRectangle width="40" height="30" as="alternateBounds" />
          </mxGeometry>
        </mxCell>
        <mxCell id="-Nrk2GaAwONbbJXYmBY--93" value="^6" style="connectable=0;recursiveResize=0;strokeColor=#82b366;fillColor=#d5e8d4;align=center;whiteSpace=wrap;html=1;" vertex="1" parent="-Nrk2GaAwONbbJXYmBY--86">
          <mxGeometry x="160" width="40" height="30" as="geometry">
            <mxRectangle width="40" height="30" as="alternateBounds" />
          </mxGeometry>
        </mxCell>
        <mxCell id="-Nrk2GaAwONbbJXYmBY--96" value="^5" style="connectable=0;recursiveResize=0;strokeColor=#82b366;fillColor=#d5e8d4;align=center;whiteSpace=wrap;html=1;" vertex="1" parent="-Nrk2GaAwONbbJXYmBY--86">
          <mxGeometry x="200" width="40" height="30" as="geometry">
            <mxRectangle width="40" height="30" as="alternateBounds" />
          </mxGeometry>
        </mxCell>
        <mxCell id="-Nrk2GaAwONbbJXYmBY--99" value="^4" style="connectable=0;recursiveResize=0;strokeColor=#82b366;fillColor=#d5e8d4;align=center;whiteSpace=wrap;html=1;" vertex="1" parent="-Nrk2GaAwONbbJXYmBY--86">
          <mxGeometry x="240" width="40" height="30" as="geometry">
            <mxRectangle width="40" height="30" as="alternateBounds" />
          </mxGeometry>
        </mxCell>
        <mxCell id="-Nrk2GaAwONbbJXYmBY--102" value="^3" style="connectable=0;recursiveResize=0;strokeColor=#82b366;fillColor=#d5e8d4;align=center;whiteSpace=wrap;html=1;" vertex="1" parent="-Nrk2GaAwONbbJXYmBY--86">
          <mxGeometry x="280" width="40" height="30" as="geometry">
            <mxRectangle width="40" height="30" as="alternateBounds" />
          </mxGeometry>
        </mxCell>
        <mxCell id="-Nrk2GaAwONbbJXYmBY--105" value="^2" style="connectable=0;recursiveResize=0;strokeColor=#82b366;fillColor=#d5e8d4;align=center;whiteSpace=wrap;html=1;" vertex="1" parent="-Nrk2GaAwONbbJXYmBY--86">
          <mxGeometry x="320" width="40" height="30" as="geometry">
            <mxRectangle width="40" height="30" as="alternateBounds" />
          </mxGeometry>
        </mxCell>
        <mxCell id="-Nrk2GaAwONbbJXYmBY--108" value="^1" style="connectable=0;recursiveResize=0;strokeColor=#82b366;fillColor=#d5e8d4;align=center;whiteSpace=wrap;html=1;" vertex="1" parent="-Nrk2GaAwONbbJXYmBY--86">
          <mxGeometry x="360" width="39" height="30" as="geometry">
            <mxRectangle width="39" height="30" as="alternateBounds" />
          </mxGeometry>
        </mxCell>
      </root>
    </mxGraphModel>
  </diagram>
</mxfile>
